<svg xmlns="http://www.w3.org/2000/svg" version="1.1" xmlns:xlink="http://www.w3.org/1999/xlink" xmlns:svgjs="http://svgjs.dev/svgjs" width="1440" height="560" preserveAspectRatio="none" viewBox="0 0 1440 560"><g mask="url(&quot;#SvgjsMask1002&quot;)" fill="none"><path d="M -784.9788962602736,178 C -688.98,221 -496.98,413.2 -304.97889626027353,393 C -112.98,372.8 -16.98,71.8 175.02110373972647,77 C 367.02,82.2 463.02,379 655.0211037397264,419 C 847.02,459 978.03,294.6 1135.0211037397264,277 C 1292.02,259.4 1379,320.2 1440,331" stroke="rgb(100, 100, 100, 0.3)" stroke-width="2"></path><path d="M -272.0742233692935,129 C -176.07,180.2 15.93,390.8 207.92577663070648,385 C 399.93,379.2 495.93,118 687.9257766307064,100 C 879.93,82 975.93,263 1167.9257766307064,295 C 1359.93,327 1593.51,237.4 1647.9257766307064,260 C 1702.34,282.6 1481.59,378.4 1440,408" stroke="rgb(100, 100, 100, 0.3)" stroke-width="2"></path><path d="M -89.74561627620773,147 C 6.25,192.8 198.25,373.6 390.2543837237923,376 C 582.25,378.4 678.25,142.4 870.2543837237922,159 C 1062.25,175.6 1158.25,458.6 1350.2543837237922,459 C 1542.25,459.4 1812.31,152.6 1830.2543837237922,161 C 1848.2,169.4 1518.05,433 1440,501" stroke="rgb(100, 100, 100, 0.3)" stroke-width="2"></path><path d="M -448.52352403248165,431 C -352.52,365 -160.52,87.2 31.476475967518383,101 C 223.48,114.8 319.48,471 511.47647596751835,500 C 703.48,529 799.48,258.8 991.4764759675184,246 C 1183.48,233.2 1381.77,431.8 1471.4764759675184,436 C 1561.18,440.2 1446.3,300.8 1440,267" stroke="rgb(100, 100, 100, 0.3)" stroke-width="2"></path></g><defs><mask id="SvgjsMask1002"><rect width="1440" height="560" fill="#ffffff"></rect></mask></defs></svg>